<?xml version="1.0" encoding="UTF-8"?>
<svg
  width="240px"
  height="240px"
  viewBox="0 0 240 240"
  version="1.1"
  xmlns="http://www.w3.org/2000/svg"
  xmlns:xlink="http://www.w3.org/1999/xlink"
>
  <title>squarelogo_verti_white_bgtransparent</title>
  <defs>
    <polygon
      id="path-1"
      points="0 0 57.1025597 0 57.1025597 77.4618359 0 77.4618359"
    ></polygon>
    <polygon
      id="path-3"
      points="0 0 32.9781665 0 32.9781665 49.4022845 0 49.4022845"
    ></polygon>
    <polygon
      id="path-5"
      points="0 140 195.770123 140 195.770123 0 0 0"
    ></polygon>
  </defs>
  <g
    id="squarelogo_verti_white_bgtransparent"
    stroke="none"
    stroke-width="1"
    fill="none"
    fill-rule="evenodd"
  >
    <g id="Group-20" transform="translate(22, 50)">
      <path
        d="M72.1946576,4.12737224 L70.7787495,3.12374323 L70.3081682,4.68957106 C64.0573502,25.524243 76.1008983,35.1732405 81.5688024,38.350705 L82.7473377,39.0378369 L83.2720566,37.8759593 C88.8107561,25.5617229 84.671307,12.9476471 72.1946576,4.12737224"
        id="Fill-1"
        fill="#FFFFFF"
      ></path>
      <g id="Group-5" transform="translate(89.7883, 0)">
        <mask id="mask-2" fill="white">
          <use xlink:href="#path-1"></use>
        </mask>
        <g id="Clip-4"></g>
        <path
          d="M22.4336324,71.5816527 C15.8996327,74.1802606 10.5358395,74.4009757 7.75399644,74.0678208 C7.80396967,72.4811708 8.02052033,70.8736986 8.31203083,69.2662264 C12.318218,68.9330716 19.4269098,65.0351597 25.2737775,58.4636802 C26.5189438,57.0644298 27.6933147,55.5652329 28.7635746,54.0118984 C31.6620219,49.8099827 34.5438114,44.0464037 36.2262435,36.5379261 C41.4651036,34.4598727 47.0662696,33.335475 52.8298487,33.3021596 C45.7253213,57.7182462 32.4532647,67.5962877 22.4336324,71.5816527 M32.369976,38.2869891 C30.97489,43.3551074 28.9051655,48.0276043 26.0650203,52.1503956 C25.0697202,53.5912904 23.978638,54.9822119 22.8209249,56.2815159 C17.7319844,62.007615 12.1099962,65.0643108 9.10743805,65.830567 C11.085545,58.8842882 15.166692,52.0504492 20.9136133,46.4701053 C24.370095,43.1135701 28.2346913,40.3900292 32.369976,38.2869891 M5.91748029,32.6400143 C10.4025776,19.7136058 19.7725579,9.73561782 32.3116739,4.51341543 C34.7353755,15.3992504 34.9977349,25.3938961 33.2944807,34.2516509 C27.9556741,36.612886 22.9791734,39.8861324 18.6273381,44.1171991 C12.8970746,49.6850497 8.68266561,56.4439288 6.40055483,63.4110298 C2.46932751,54.5074662 2.22779024,43.2593254 5.91748029,32.6400143 M36.9341975,32.8024273 C38.1751994,24.8691772 38.0794173,15.2201797 35.4683162,3.5889107 L34.6645801,-0.000832887144 L31.2622361,1.39841751 C17.7444777,6.9579392 7.64155668,17.6730323 2.81914011,31.5614254 C-1.56184626,44.1630079 -0.799754525,57.6890951 4.84722031,67.742043 L5.15955299,68.2959129 C4.69730062,70.6987923 4.43077674,73.1016717 4.46409222,75.4587423 L4.4849144,76.7080731 L5.69260076,77.0204057 C6.63792767,77.2702719 8.09964461,77.4618359 9.96531181,77.4618359 C13.3843135,77.4618359 18.1609213,76.8121839 23.6454831,74.6300196 C34.635429,70.2615266 49.2692561,59.3382117 56.5695119,32.1236242 L57.1025597,30.1371884 L55.0494929,30.0580641 C48.7861816,29.8165269 42.6811188,30.7951693 36.9341975,32.8024273"
          id="Fill-3"
          fill="#FFFFFF"
          mask="url(#mask-2)"
        ></path>
      </g>
      <path
        d="M41.4402998,26.6723779 C45.0050568,48.9187935 64.7194955,68.8997561 84.7254447,67.9211137 C84.3214944,48.6314474 64.103159,27.5552383 41.4402998,26.6723779"
        id="Fill-6"
        fill="#FFFFFF"
      ></path>
      <path
        d="M10.9249807,118.610209 C11.6537569,113.775299 14.6354929,111.855494 17.9462193,111.855494 C21.785829,111.855494 24.4344101,114.83723 24.6343031,118.610209 L10.9249807,118.610209 Z M17.8129573,102.318936 C7.01873996,102.318936 0.00166577429,110.26468 0.00166577429,120.992266 C0.00166577429,133.377298 8.27639955,139.998751 21.2569457,139.998751 C25.1631864,139.998751 28.7404367,139.536498 31.9179011,138.412101 L31.0558629,130.266464 C28.6738057,131.128503 26.1584865,131.524124 23.1101196,131.524124 C16.8842882,131.524124 12.7781546,129.471057 11.4580284,124.902671 L33.9709679,124.902671 C34.2333274,123.707478 34.3041228,122.120828 34.3041228,120.663276 C34.3041228,110.926825 28.8070676,102.318936 17.8129573,102.318936 L17.8129573,102.318936 Z"
        id="Fill-8"
        fill="#FFFFFF"
      ></path>
      <g id="Group-12" transform="translate(40.7815, 90.5977)">
        <mask id="mask-4" fill="white">
          <use xlink:href="#path-3"></use>
        </mask>
        <g id="Clip-11"></g>
        <path
          d="M18.1444464,20.3307752 C12.6473913,19.0731156 10.9941103,17.8779225 10.9941103,15.6957582 C10.9941103,13.1138081 13.3095366,11.5896246 17.9445535,11.5896246 C22.25058,11.5896246 25.8902969,12.3850318 29.6674401,13.5760604 L30.2629544,2.3195907 C26.5524421,0.795407222 23.2417157,0 17.3490392,0 C5.23053126,0 0,6.48819085 0,15.1002439 C0,23.9746564 5.23053126,27.6143733 14.3673032,29.6008091 C19.6686299,30.7918377 21.9840562,31.9870308 21.9840562,34.7022428 C21.9840562,37.5465524 19.335475,39.2039979 13.9716818,39.2039979 C8.87441252,39.2039979 4.17276459,38.0796002 1.05776667,36.7553097 L0.528883336,46.7541198 C4.50175501,48.2741389 7.87911238,49.4027009 14.6338271,49.4027009 C27.4144803,49.4027009 32.9781665,42.9103456 32.9781665,34.435719 C32.9781665,25.6945684 27.4811113,22.383842 18.1444464,20.3307752"
          id="Fill-10"
          fill="#FFFFFF"
          mask="url(#mask-4)"
        ></path>
      </g>
      <path
        d="M98.4476768,130.529657 C93.8126599,130.529657 90.3686715,127.085668 90.3686715,121.721875 C90.3686715,116.557975 93.7460289,112.847463 98.4476768,112.847463 C103.082694,112.847463 106.593313,116.557975 106.593313,121.721875 C106.593313,127.085668 103.149325,130.529657 98.4476768,130.529657 M98.4476768,102.319769 C87.3203046,102.319769 79.5744542,110.198882 79.5744542,121.126361 C79.5744542,131.987209 87.3869356,139.999584 98.4476768,139.999584 C109.637516,139.999584 117.3209,131.987209 117.3209,121.126361 C117.3209,110.198882 109.637516,102.319769 98.4476768,102.319769"
        id="Fill-13"
        fill="#FFFFFF"
      ></path>
      <mask id="mask-6" fill="white">
        <use xlink:href="#path-5"></use>
      </mask>
      <g id="Clip-16"></g>
      <polygon
        id="Fill-15"
        fill="#FFFFFF"
        mask="url(#mask-6)"
        points="125.453626 139.137962 135.71896 139.137962 135.71896 88.8107561 125.453626 88.8107561"
      ></polygon>
      <path
        d="M150.876257,87.5514308 C147.23654,87.5514308 144.583794,89.9376524 144.583794,93.6440002 C144.583794,97.350348 147.299006,99.7365697 150.876257,99.7365697 C154.453507,99.7365697 157.168719,97.350348 157.168719,93.6440002 C157.168719,89.9376524 154.586769,87.5514308 150.876257,87.5514308"
        id="Fill-17"
        fill="#FFFFFF"
        mask="url(#mask-6)"
      ></path>
      <polygon
        id="Fill-18"
        fill="#FFFFFF"
        mask="url(#mask-6)"
        points="145.776072 139.137962 156.041406 139.137962 156.041406 103.182224 145.776072 103.182224"
      ></polygon>
      <path
        d="M185.307811,129.337795 C184.312511,131.524124 182.192813,133.310667 179.277708,133.310667 C176.766554,133.310667 174.775953,132.186269 174.775953,129.800048 C174.775953,126.822476 176.895651,125.960438 180.339639,125.165031 C182.525968,124.702778 184.24588,124.040633 185.307811,123.51175 L185.307811,129.337795 Z M179.677494,102.318936 C174.180439,102.318936 169.482956,103.643227 166.367958,105.300672 L167.096734,115.566006 C170.274198,114.108454 174.313701,112.84663 178.615563,112.84663 C183.054852,112.84663 185.174549,114.175085 185.174549,116.290618 C185.174549,117.219287 184.908025,117.748171 183.783628,118.210423 C182.392706,118.743471 180.801892,119.139092 177.890951,119.667975 C170.207567,120.9298 164.048367,123.178595 164.048367,130.857814 C164.048367,136.887917 168.354393,139.998751 174.313701,139.998751 C179.610863,139.998751 182.65923,137.945684 185.307811,134.768219 L185.307811,139.136712 L195.768874,139.136712 L195.768874,117.219287 C195.768874,107.549468 190.938128,102.318936 179.677494,102.318936 L179.677494,102.318936 Z"
        id="Fill-19"
        fill="#FFFFFF"
        mask="url(#mask-6)"
      ></path>
    </g>
  </g>
</svg>
